#!OML:ASF H:\Punching\Project 1\Capture day 1\Session 1\female.ASF
:FULLY-SPECIFIED
:DEGREES
1245
root -2.09227 14.8185 9.30991 25.0547 15.1799 3.86398
lowerback 7.10814 0.360011 -2.04256
upperback -3.55242 0.0887799 -2.63076
thorax -7.73423 0.0755682 -1.63569
lowerneck -16.7833 -3.2294 3.29502
upperneck 18.1549 -5.04168 -1.10636
head 8.29451 -2.25768 -1.50722
rclavicle -2.56432e-014 -2.24627e-014
rhumerus 18.0741 57.3217 -53.5375
rradius 89.1869
rwrist -17.3684
rhand -15.926 -4.44496
rfingers 7.12502
rthumb 10.2715 -34.1741
lclavicle -2.56432e-014 -2.24627e-014
lhumerus -4.13809 -66.4653 86.1437
lradius 129.107
lwrist 4.84304
lhand -20.0587 7.49588
lfingers 7.12502
lthumb 6.28314 37.3827
rfemur -57.4919 -12.8246 12.6626
rtibia 55.5821
rfoot -16.0111 -11.0305
rtoes -4.77138
lfemur -10.8015 -17.8888 2.96583
ltibia 6.36111e-015
lfoot -12.3033 23.1122
ltoes -16.5192
1246
root -2.19094 14.7817 9.34764 25.5932 15.5906 4.03989
lowerback 7.27661 0.343091 -1.99868
upperback -3.48249 0.0716824 -2.55418
thorax -7.7569 0.0669343 -1.57795
lowerneck -16.8852 -3.31779 3.12887
upperneck 17.5282 -5.11721 -1.09319
head 8.10467 -2.31578 -1.47465
rclavicle 3.3694e-014 -1.8487e-014
rhumerus 15.8311 56.4577 -54.7465
rradius 87.0063
rwrist -16.6284
rhand -16.5838 -3.37397
rfingers 7.12502
rthumb 9.63691 -33.1335
lclavicle 3.3694e-014 -1.8487e-014
lhumerus -4.93825 -66.0222 86.6736
lradius 128.919
lwrist 5.07529
lhand -20.1237 7.65882
lfingers 7.12502
lthumb 6.22035 37.5475
rfemur -58.5341 -13.1403 13.1765
rtibia 56.715
rfoot -16.6379 -11.2198
rtoes -4.5631
lfemur -11.4173 -17.8338 3.55476
ltibia -2.54444e-014
lfoot -12.4642 23.0405
ltoes -16.2862
1247
root -2.28543 14.7436 9.38272 26.116 15.9424 4.20093
lowerback 7.44249 0.336924 -1.96209
upperback -3.41522 0.0691479 -2.46722
thorax -7.78072 0.0660935 -1.50712
lowerneck -16.9557 -3.39037 2.98847
upperneck 16.8946 -5.1695 -1.11514
head 7.90693 -2.36434 -1.45439
rclavicle -5.46658e-016 3.97569e-016
rhumerus 13.7721 55.408 -55.8673
rradius 84.4538
rwrist -15.5677
rhand -17.3437 -2.16633
rfingers 7.12502
rthumb 8.90368 -31.9585
lclavicle -5.46658e-016 3.97569e-016
lhumerus -5.70939 -65.5654 87.1998
lradius 128.713
lwrist 5.24026
lhand -20.189 7.784
lfingers 7.12502
lthumb 6.15731 37.6745
rfemur -59.5451 -13.3991 13.6884
rtibia 57.7622
rfoot -17.248 -11.4442
rtoes -4.31968
lfemur -11.9925 -17.7231 4.1093
ltibia -1.59028e-014
lfoot -12.6316 22.9504
ltoes -16.0526
1248
root -2.37576 14.705 9.41599 26.6177 16.2537 4.34284
lowerback 7.60155 0.329721 -1.9219
upperback -3.34917 0.0669839 -2.36603
thorax -7.80181 0.0656237 -1.42324
lowerneck -16.9966 -3.44534 2.8581
upperneck 16.2608 -5.19579 -1.15841
head 7.70477 -2.40138 -1.43916
rclavicle 1.4561e-014 2.13694e-014
rhumerus 11.9633 54.186 -56.8862
rradius 81.4901
rwrist -14.2036
rhand -18.1814 -0.942068
rfingers 7.12502
rthumb 8.0953 -30.767
lclavicle 1.4561e-014 2.13694e-014
lhumerus -6.45826 -65.094 87.7151
lradius 128.492
lwrist 5.32744
lhand -20.2627 7.88494
lfingers 7.12502
lthumb 6.08619 37.7775
rfemur -60.5102 -13.6139 14.2014
rtibia 58.7301
rfoot -17.8461 -11.6938
rtoes -4.06549
lfemur -12.5274 -17.5737 4.63957
ltibia -3.18055e-015
lfoot -12.8051 22.8471
ltoes -15.8295
1249
root -2.46295 14.667 9.44889 27.0768 16.5513 4.4675
lowerback 7.76819 0.314773 -1.87738
upperback -3.27961 0.0559008 -2.25072
thorax -7.82355 0.0609306 -1.3256
lowerneck -17.0033 -3.48471 2.74061
upperneck 15.6343 -5.20084 -1.21883
head 7.49987 -2.42828 -1.42862
rclavicle 2.20278e-014 -5.21561e-014
rhumerus 10.4412 52.7838 -57.8112
rradius 78.07
rwrist -12.571
rhand -19.1188 0.251505
rfingers 7.12502
rthumb 7.19049 -29.6063
lclavicle 2.20278e-014 -5.21561e-014
lhumerus -7.17449 -64.6153 88.2085
lradius 128.259
lwrist 5.35274
lhand -20.3231 7.97017
lfingers 7.12502
lthumb 6.02784 37.8644
rfemur -61.3964 -13.79 14.707
rtibia 59.6385
rfoot -18.4366 -11.9678
rtoes -3.82302
lfemur -13.0085 -17.4192 5.15078
ltibia -5.40694e-014
lfoot -12.9637 22.7451
ltoes -15.7043
1250
root -2.54702 14.6294 9.48119 27.5046 16.8327 4.58368
lowerback 7.92963 0.290714 -1.83314
upperback -3.20745 0.0336499 -2.12687
thorax -7.8395 0.050997 -1.21698
lowerneck -16.9844 -3.50898 2.63401
upperneck 15.0231 -5.18635 -1.29273
head 7.29644 -2.44535 -1.42181
rclavicle 2.25683e-014 -2.20154e-014
rhumerus 9.25593 51.2111 -58.6367
rradius 74.1665
rwrist -10.756
rhand -20.1962 1.33609
rfingers 7.12502
rthumb 6.15039 -28.5546
lclavicle 2.25683e-014 -2.20154e-014
lhumerus -7.86504 -64.136 88.682
lradius 128.021
lwrist 5.33576
lhand -20.3576 8.05254
lfingers 7.12502
lthumb 5.99458 37.9477
rfemur -62.2333 -13.9313 15.1901
rtibia 60.515
rfoot -19.004 -12.247
rtoes -3.59753
lfemur -13.4465 -17.2583 5.63765
ltibia 3.18055e-015
lfoot -13.1229 22.6351
ltoes -15.6191
